#N canvas 286 65 841 415 10;
#X obj 102 199 readsf~ 2;
#X obj 108 260 dac~ 1 2;
#X msg 560 133 \; pd dsp 1;
#X obj 549 51 loadbang;
#X obj 525 175 print Running;
#X obj 548 89 delay 100;
#X msg 55 190 1;
#X msg 24 190 0;
#X obj 314 246 seq;
#X obj 143 21 bng 15 250 50 0 empty empty empty 17 7 0 10 -262144 -1
-1;
#X msg 109 166 open ../media/metro1min_1.aif;
#X msg 314 172 read ../media/metro1min_1.mid;
#X obj 143 51 t b b b b;
#X obj 341 304 print DoneMIDI;
#X obj 164 228 print doneAUDIO;
#X obj 376 266 bng 15 250 50 0 empty empty empty 17 7 0 10 -262144
-1 -1;
#X obj 195 282 bng 15 250 50 0 empty empty empty 17 7 0 10 -262144
-1 -1;
#X obj 237 332 midiout;
#X connect 0 0 1 0;
#X connect 0 1 1 1;
#X connect 0 2 14 0;
#X connect 0 2 16 0;
#X connect 3 0 5 0;
#X connect 5 0 2 0;
#X connect 5 0 4 0;
#X connect 5 0 9 0;
#X connect 6 0 0 0;
#X connect 7 0 0 0;
#X connect 8 0 17 0;
#X connect 8 1 13 0;
#X connect 8 1 15 0;
#X connect 9 0 12 0;
#X connect 10 0 0 0;
#X connect 11 0 8 0;
#X connect 12 0 6 0;
#X connect 12 1 8 0;
#X connect 12 2 10 0;
#X connect 12 3 11 0;
