#N canvas 384 46 736 494 10;
#X text 70 2 Réception d'un objet serie;
#X text 73 20 Midi player;
#X text 67 33 Audio player;
#X msg 24 67 devices;
#X obj 428 19 loadbang;
#X obj 530 64 s file;
#X obj 428 41 s init;
#X obj 24 35 r init;
#X msg 96 66 ports;
#X msg 144 66 verbose 1;
#X obj 211 56 delay 20;
#X obj 80 263 bng 15 250 50 0 empty empty empty 17 7 0 10 -262144 -1
-1;
#X obj 24 266 bng 15 250 50 0 empty empty empty 17 7 0 10 -262144 -1
-1;
#X obj 257 125 print com;
#X obj 105 125 print comport-right-out;
#N canvas 615 183 665 398 MIDI-Player 0;
#X obj 310 300 seq;
#X msg 310 201 bang;
#X msg 339 226 stop;
#X obj 344 180 bng 15 250 50 0 empty empty empty 0 -6 0 10 -262144
-1 -1;
#X msg 389 225 pause;
#X msg 449 225 continue;
#X text 372 180 loop;
#X text 377 198 play;
#X msg 404 266 goto;
#X obj 310 323 midiout;
#X obj 310 59 r play;
#X obj 458 153 r stop;
#X obj 315 34 print midi-play;
#X obj 205 131 r init;
#X obj 147 39 r file;
#X obj 147 122 pp set;
#X obj 147 97 pp read;
#X msg 216 201 read 2.mid;
#X obj 147 64 sprintf %d.mid;
#X obj 310 83 t b b;
#X obj 310 112 delay 20;
#X connect 0 0 9 0;
#X connect 1 0 0 0;
#X connect 2 0 0 0;
#X connect 3 0 1 0;
#X connect 4 0 0 0;
#X connect 5 0 0 0;
#X connect 8 0 0 0;
#X connect 10 0 19 0;
#X connect 11 0 2 0;
#X connect 13 0 17 0;
#X connect 14 0 18 0;
#X connect 15 0 17 0;
#X connect 16 0 15 0;
#X connect 17 0 0 0;
#X connect 18 0 16 0;
#X connect 19 0 20 0;
#X connect 19 1 17 0;
#X connect 20 0 1 0;
#X restore 408 270 pd MIDI-Player;
#X msg 80 290 50;
#X obj 530 21 r init;
#X msg 24 289 50;
#X obj 80 320 s stop;
#X obj 24 320 s play;
#X msg 211 76 devicename /dev/ttyAMA0;
#X obj 395 69 delay 100;
#X msg 394 97 \; pd dsp 1;
#N canvas 261 86 684 369 audio-player 0;
#X obj 61 211 readsf~ 2;
#X obj 62 115 t b b;
#X obj 137 29 r file;
#X obj 137 90 pp open;
#X obj 137 112 pp set;
#X obj 62 85 r play;
#X obj 162 144 delay 20;
#X msg 98 164 1;
#X msg 98 185 0;
#X obj 112 231 s EOF;
#X obj 284 73 hsl 128 15 0 1 0 0 empty empty Gain 10 -8 0 10 -261234
-1 -1 5080 1;
#X msg 281 113 \$1 25;
#X obj 281 185 line~;
#X obj 281 41 r vol;
#X obj 236 100 r stop;
#X obj 424 46 r play;
#X obj 236 19 r init;
#X msg 424 158 0.4 50;
#X msg 236 151 0 \$1;
#X obj 424 115 pack f f;
#X msg 424 136 set \$1 \$2;
#X msg 468 46 2000;
#X obj 424 94 t b f;
#X msg 196 99 2000;
#X obj 500 136 delay 20;
#X msg 236 40 0.4;
#X obj 97 292 dac~;
#X obj 97 268 *~;
#X obj 125 268 *~;
#X obj 137 54 sprintf %d.wav;
#X msg 61 144 open 2.wav;
#X connect 0 0 27 0;
#X connect 0 1 28 0;
#X connect 0 2 9 0;
#X connect 1 0 6 0;
#X connect 1 1 30 0;
#X connect 2 0 29 0;
#X connect 3 0 4 0;
#X connect 4 0 30 0;
#X connect 5 0 1 0;
#X connect 6 0 7 0;
#X connect 7 0 0 0;
#X connect 8 0 0 0;
#X connect 10 0 11 0;
#X connect 10 0 19 0;
#X connect 11 0 12 0;
#X connect 12 0 27 1;
#X connect 12 0 28 1;
#X connect 13 0 10 0;
#X connect 14 0 18 0;
#X connect 15 0 22 0;
#X connect 15 0 24 0;
#X connect 16 0 25 0;
#X connect 16 0 21 0;
#X connect 16 0 23 0;
#X connect 17 0 12 0;
#X connect 18 0 12 0;
#X connect 19 0 20 0;
#X connect 20 0 17 0;
#X connect 21 0 19 1;
#X connect 22 0 19 0;
#X connect 22 1 19 1;
#X connect 24 0 17 0;
#X connect 25 0 10 0;
#X connect 27 0 26 0;
#X connect 28 0 26 1;
#X connect 29 0 3 0;
#X connect 30 0 0 0;
#X restore 408 245 pd audio-player;
#X obj 553 183 s file;
#X msg 530 43 1;
#X obj 553 149 nbx 5 14 -1e+37 1e+37 0 0 empty empty empty 0 -8 0 10
-262144 -1 -1 2 256;
#X obj 24 105 comport -1 9600;
#X obj 24 150 midiparse;
#X obj 24 176 stripnote;
#X obj 24 203 sel 60 61;
#X obj 171 304 route 7;
#X obj 170 222 swap;
#X obj 171 332 print volume;
#X obj 170 262 pack f f;
#X connect 3 0 28 0;
#X connect 4 0 6 0;
#X connect 4 0 22 0;
#X connect 7 0 3 0;
#X connect 7 0 8 0;
#X connect 7 0 9 0;
#X connect 7 0 10 0;
#X connect 8 0 28 0;
#X connect 9 0 28 0;
#X connect 10 0 21 0;
#X connect 11 0 16 0;
#X connect 12 0 18 0;
#X connect 16 0 19 0;
#X connect 17 0 26 0;
#X connect 18 0 20 0;
#X connect 21 0 28 0;
#X connect 22 0 23 0;
#X connect 26 0 5 0;
#X connect 27 0 25 0;
#X connect 28 0 13 0;
#X connect 28 0 29 0;
#X connect 28 1 14 0;
#X connect 29 0 30 0;
#X connect 29 2 33 0;
#X connect 30 0 31 0;
#X connect 31 0 12 0;
#X connect 31 1 11 0;
#X connect 32 0 34 0;
#X connect 33 0 35 0;
#X connect 33 1 35 1;
#X connect 35 0 32 0;
