#N canvas 525 37 736 494 10;
#X text 70 2 Réception d'un objet serie;
#X text 73 20 Midi player;
#X text 67 33 Audio player;
#X msg 24 67 devices;
#X obj 428 19 loadbang;
#X obj 530 64 s file;
#X obj 428 41 s init;
#X obj 24 35 r init;
#X msg 96 66 ports;
#X msg 144 66 verbose 1;
#X obj 211 56 delay 20;
#X obj 80 263 bng 15 250 50 0 empty empty empty 17 7 0 10 -262144 -1
-1;
#X obj 24 230 bng 15 250 50 0 empty empty empty 17 7 0 10 -262144 -1
-1;
#X obj 257 125 print com;
#X obj 105 125 print comport-right-out;
#N canvas 615 183 665 398 MIDI-Player 0;
#X obj 310 300 seq;
#X msg 310 201 bang;
#X msg 339 226 stop;
#X obj 344 180 bng 15 250 50 0 empty empty empty 0 -6 0 10 -262144
-1 -1;
#X msg 389 225 pause;
#X msg 449 225 continue;
#X text 372 180 loop;
#X text 377 198 play;
#X msg 404 266 goto;
#X obj 310 323 midiout;
#X obj 310 59 r play;
#X obj 458 153 r stop;
#X obj 315 34 print midi-play;
#X obj 205 131 r init;
#X obj 147 39 r file;
#X msg 216 201 read 1.mid;
#X obj 147 64 sprintf %d.mid;
#X obj 310 83 t b b;
#X obj 310 112 delay 20;
#X obj 147 97 prepend read;
#X obj 147 122 prepend set;
#X connect 0 0 9 0;
#X connect 1 0 0 0;
#X connect 2 0 0 0;
#X connect 3 0 1 0;
#X connect 4 0 0 0;
#X connect 5 0 0 0;
#X connect 8 0 0 0;
#X connect 10 0 17 0;
#X connect 11 0 2 0;
#X connect 13 0 15 0;
#X connect 14 0 16 0;
#X connect 15 0 0 0;
#X connect 16 0 19 0;
#X connect 17 0 18 0;
#X connect 17 1 15 0;
#X connect 18 0 1 0;
#X connect 19 0 20 0;
#X connect 20 0 15 0;
#X restore 408 270 pd MIDI-Player;
#X obj 530 21 r init;
#X obj 80 301 s stop;
#X obj 24 301 s play;
#X msg 211 76 devicename /dev/ttyAMA0;
#X obj 395 69 delay 100;
#X msg 394 97 \; pd dsp 1;
#N canvas 538 74 684 369 audio-player 0;
#X obj 61 211 readsf~ 2;
#X obj 62 115 t b b;
#X obj 137 29 r file;
#X obj 62 85 r play;
#X obj 162 144 delay 20;
#X msg 98 164 1;
#X msg 99 186 0;
#X obj 112 231 s EOF;
#X obj 284 76 hsl 128 15 0 1 0 0 empty empty Gain 10 -8 0 10 -261234
-1 -1 5080 1;
#X obj 281 41 r vol;
#X obj 248 143 r stop;
#X obj 236 19 r init;
#X msg 236 40 0.4;
#X obj 97 292 dac~;
#X obj 97 268 *~;
#X obj 125 268 *~;
#X obj 137 54 sprintf %d.wav;
#X msg 61 144 open 1.wav;
#X obj 137 90 prepend open;
#X obj 137 112 prepend set;
#X connect 0 0 14 0;
#X connect 0 1 15 0;
#X connect 0 2 7 0;
#X connect 1 0 4 0;
#X connect 1 1 17 0;
#X connect 2 0 16 0;
#X connect 3 0 1 0;
#X connect 4 0 5 0;
#X connect 5 0 0 0;
#X connect 6 0 0 0;
#X connect 8 0 14 1;
#X connect 8 0 15 1;
#X connect 9 0 8 0;
#X connect 10 0 6 0;
#X connect 11 0 12 0;
#X connect 12 0 8 0;
#X connect 14 0 13 0;
#X connect 15 0 13 1;
#X connect 16 0 18 0;
#X connect 17 0 0 0;
#X connect 18 0 19 0;
#X connect 19 0 17 0;
#X restore 408 245 pd audio-player;
#X obj 553 183 s file;
#X msg 530 43 1;
#X obj 553 150 nbx 5 14 -1e+37 1e+37 0 0 empty empty empty 0 -8 0 10
-262144 -1 -1 0 256;
#X obj 24 150 midiparse;
#X obj 24 176 stripnote;
#X obj 24 203 sel 60 61;
#X obj 170 222 swap;
#X obj 171 364 print volume;
#X obj 170 262 pack f f;
#X obj 257 364 s vol;
#X obj 171 329 / 127;
#X obj 171 304 route 7 8;
#X obj 302 365 s file;
#X obj 351 366 print file;
#X obj 24 258 t b b;
#N canvas 379 131 450 300 control 0;
#X obj 38 12 notein;
#X obj 36 57 stripnote;
#X obj 36 121 + 1;
#X obj 26 227 midiformat;
#X obj 26 258 s to_serial;
#X obj 134 151 s file;
#X obj 36 85 split 0 63;
#X obj 126 28 ctlin 48;
#X obj 37 148 pack 1 8;
#X obj 131 91 pack 1 7;
#X obj 226 148 s vol;
#X obj 226 72 / 127;
#X obj 311 246 s play;
#X obj 363 192 s stop;
#X obj 311 150 t b b;
#X msg 170 183 60 127;
#X msg 228 183 61 127;
#N canvas 619 230 640 325 lights 0;
#X obj 99 17 inlet;
#X obj 134 201 midiformat;
#X obj 137 123 uzi 64;
#X obj 189 170 pack 0 0;
#X obj 190 148 - 1;
#X obj 98 97 t l b;
#X obj 341 8 r init;
#X msg 384 66 67 1;
#X obj 436 25 r play;
#X msg 430 66 67 2;
#X obj 487 24 r stop;
#X obj 134 238 midiout 2;
#X obj 98 68 pack 0 5;
#X obj 341 32 delay 2000;
#X msg 338 69 89 1;
#X msg 294 66 0 5;
#X connect 0 0 12 0;
#X connect 1 0 11 0;
#X connect 2 2 4 0;
#X connect 3 0 1 0;
#X connect 4 0 3 0;
#X connect 5 0 1 0;
#X connect 5 1 2 0;
#X connect 6 0 13 0;
#X connect 7 0 1 0;
#X connect 8 0 9 0;
#X connect 9 0 1 0;
#X connect 9 0 14 0;
#X connect 10 0 7 0;
#X connect 12 0 5 0;
#X connect 13 0 14 0;
#X connect 13 0 7 0;
#X connect 13 0 15 0;
#X connect 14 0 1 0;
#X connect 15 0 1 0;
#X restore 69 119 pd lights;
#X obj 311 121 sel 67 89;
#X obj 353 60 ctlin 56;
#X obj 378 89 print delay;
#X obj 318 208 delay 40;
#X connect 0 0 1 0;
#X connect 0 1 1 1;
#X connect 1 0 6 0;
#X connect 2 0 5 0;
#X connect 2 0 8 0;
#X connect 3 0 4 0;
#X connect 6 0 2 0;
#X connect 6 0 17 0;
#X connect 6 1 18 0;
#X connect 7 0 9 0;
#X connect 7 0 11 0;
#X connect 8 0 3 2;
#X connect 9 0 3 2;
#X connect 11 0 10 0;
#X connect 14 0 21 0;
#X connect 14 1 13 0;
#X connect 15 0 3 0;
#X connect 16 0 3 0;
#X connect 18 0 14 0;
#X connect 18 0 15 0;
#X connect 18 1 13 0;
#X connect 18 1 16 0;
#X connect 19 0 20 0;
#X connect 19 0 21 1;
#X connect 21 0 12 0;
#X restore 407 216 pd control;
#X obj 147 32 r to_serial;
#X obj 24 105 comport /dev/ttyAMA0 9600;
#X connect 3 0 40 0;
#X connect 4 0 6 0;
#X connect 4 0 20 0;
#X connect 7 0 3 0;
#X connect 7 0 8 0;
#X connect 7 0 9 0;
#X connect 7 0 10 0;
#X connect 8 0 40 0;
#X connect 9 0 40 0;
#X connect 10 0 19 0;
#X connect 11 0 17 0;
#X connect 12 0 37 0;
#X connect 16 0 24 0;
#X connect 19 0 40 0;
#X connect 20 0 21 0;
#X connect 24 0 5 0;
#X connect 25 0 23 0;
#X connect 26 0 27 0;
#X connect 26 2 29 0;
#X connect 27 0 28 0;
#X connect 28 0 12 0;
#X connect 28 1 11 0;
#X connect 29 0 31 0;
#X connect 29 1 31 1;
#X connect 31 0 34 0;
#X connect 33 0 30 0;
#X connect 33 0 32 0;
#X connect 34 0 33 0;
#X connect 34 1 35 0;
#X connect 34 1 36 0;
#X connect 37 0 18 0;
#X connect 37 1 17 0;
#X connect 39 0 40 0;
#X connect 40 0 13 0;
#X connect 40 0 26 0;
#X connect 40 1 14 0;
