#N canvas 533 68 736 494 10;
#X text 70 2 Réception d'un objet serie;
#X text 73 20 Midi player;
#X text 67 33 Audio player;
#X msg 24 67 devices;
#X obj 428 19 loadbang;
#X obj 530 64 s file;
#X obj 428 41 s init;
#X obj 24 35 r init;
#X msg 96 66 ports;
#X msg 144 66 verbose 1;
#X obj 211 56 delay 20;
#X obj 24 173 match 48 10;
#X obj 104 173 match 49 10;
#X obj 44 201 bng 15 250 50 0 empty empty empty 17 7 0 10 -262144 -1
-1;
#X obj 130 202 bng 15 250 50 0 empty empty empty 17 7 0 10 -262144
-1 -1;
#X obj 207 173 print com;
#X obj 211 213 print go;
#X obj 105 125 print comport-right-out;
#N canvas 199 442 450 300 MIDI-Player 0;
#X obj 163 204 seq;
#X msg 163 105 bang;
#X msg 192 130 stop;
#X obj 197 84 bng 15 250 50 0 empty empty empty 0 -6 0 10 -262144 -1
-1;
#X msg 242 129 pause;
#X msg 302 129 continue;
#X text 225 84 loop;
#X text 230 102 play;
#X msg 257 170 goto;
#X obj 163 227 midiout;
#X obj 168 31 r play;
#X obj 311 57 r stop;
#X obj 117 68 print midi-play;
#X obj 46 32 r init;
#X msg 69 105 read 1.mid;
#X connect 0 0 9 0;
#X connect 1 0 0 0;
#X connect 2 0 0 0;
#X connect 3 0 1 0;
#X connect 4 0 0 0;
#X connect 5 0 0 0;
#X connect 8 0 0 0;
#X connect 10 0 1 0;
#X connect 11 0 2 0;
#X connect 13 0 14 0;
#X connect 14 0 0 0;
#X restore 408 270 pd MIDI-Player;
#X msg 42 234 50;
#X obj 530 21 r init;
#X msg 129 225 50;
#X obj 24 105 comport 2 9600;
#X obj 44 258 s stop;
#X obj 130 250 s play;
#X msg 211 76 devicename /dev/ttyAMA0;
#X obj 395 69 delay 100;
#X msg 394 97 \; pd dsp 1;
#X msg 530 43 1.wav;
#N canvas 807 324 450 300 audio-player 0;
#X obj 61 211 readsf~ 2;
#X msg 61 144 open test.wav;
#X obj 62 115 t b b;
#X obj 137 29 r file;
#X obj 137 90 pp open;
#X obj 137 112 pp set;
#X obj 62 85 r play;
#X obj 162 144 delay 20;
#X msg 98 164 1;
#X msg 98 185 0;
#X obj 112 231 s EOF;
#X obj 284 73 hsl 128 15 0 1 0 0 empty empty Gain 10 -8 0 10 -261234
-1 -1 0 1;
#X msg 281 113 \$1 25;
#X obj 281 185 line~;
#X obj 281 41 r vol;
#X obj 236 100 r stop;
#X obj 424 46 r play;
#X obj 236 19 r init;
#X msg 424 158 0.4 0;
#X msg 236 151 0 \$1;
#X obj 424 115 pack f f;
#X msg 424 136 set \$1 \$2;
#X msg 468 46 2000;
#X obj 424 94 t b f;
#X msg 196 99 2000;
#X obj 500 136 delay 20;
#X msg 236 40 0.4;
#X obj 97 292 dac~;
#X obj 97 268 *~;
#X obj 125 268 *~;
#X obj 137 54 sprintf %d.wav;
#X connect 0 0 28 0;
#X connect 0 1 29 0;
#X connect 0 2 10 0;
#X connect 1 0 0 0;
#X connect 2 0 7 0;
#X connect 2 1 1 0;
#X connect 3 0 30 0;
#X connect 4 0 5 0;
#X connect 5 0 1 0;
#X connect 6 0 2 0;
#X connect 7 0 8 0;
#X connect 8 0 0 0;
#X connect 9 0 0 0;
#X connect 11 0 12 0;
#X connect 11 0 20 0;
#X connect 12 0 13 0;
#X connect 13 0 28 1;
#X connect 13 0 29 1;
#X connect 14 0 11 0;
#X connect 15 0 19 0;
#X connect 16 0 23 0;
#X connect 16 0 25 0;
#X connect 17 0 26 0;
#X connect 17 0 22 0;
#X connect 17 0 24 0;
#X connect 18 0 13 0;
#X connect 19 0 13 0;
#X connect 20 0 21 0;
#X connect 21 0 18 0;
#X connect 22 0 20 1;
#X connect 23 0 20 0;
#X connect 23 1 20 1;
#X connect 25 0 18 0;
#X connect 26 0 11 0;
#X connect 28 0 27 0;
#X connect 29 0 27 1;
#X connect 30 0 4 0;
#X restore 408 245 pd audio-player;
#X connect 3 0 22 0;
#X connect 4 0 6 0;
#X connect 4 0 26 0;
#X connect 7 0 3 0;
#X connect 7 0 8 0;
#X connect 7 0 9 0;
#X connect 7 0 10 0;
#X connect 8 0 22 0;
#X connect 9 0 22 0;
#X connect 10 0 25 0;
#X connect 11 0 13 0;
#X connect 11 0 16 0;
#X connect 12 0 14 0;
#X connect 12 0 16 0;
#X connect 13 0 19 0;
#X connect 14 0 21 0;
#X connect 19 0 23 0;
#X connect 20 0 28 0;
#X connect 21 0 24 0;
#X connect 22 0 11 0;
#X connect 22 0 12 0;
#X connect 22 0 15 0;
#X connect 22 1 17 0;
#X connect 25 0 22 0;
#X connect 26 0 27 0;
#X connect 28 0 5 0;
